<svg id="Layer_1" data-name="Layer 1" xmlns="http://www.w3.org/2000/svg" viewBox="0 0 392 136"><title>Main logo_svg</title><path d="M39.28,44.32A19.56,19.56,0,0,0,42.7,39,20.11,20.11,0,0,0,44,31.38a18.08,18.08,0,0,0-6-13.89q-5.13-4.77-10.75-4.77a22.85,22.85,0,0,0-7.48.87c-3.19.53-4.93,2-5.2,4.45a34.79,34.79,0,0,0-.15,5.1c0,1.77.09,3.56.15,5.33V70a7,7,0,0,0,1.41,4.18,4,4,0,0,0,3.2,2q10.57,0,17.49-3.43a21.05,21.05,0,0,0,6-4.66q4.32-4.68,4.31-9.88a15.75,15.75,0,0,0-2.54-8.29A16.16,16.16,0,0,0,39.28,44.32ZM22.59,31.67V23.38c.51-.06,2-.08,4.58-.08A8.34,8.34,0,0,1,33.05,26a7.48,7.48,0,0,1,2.67,5.36c0,5.23-3,8.17-9.08,8.79a15.4,15.4,0,0,1-4.05-.28ZM33.66,62.8a39.83,39.83,0,0,1-11.07,2.6V50.72c3.58.19,6.28.28,8.08.28a10.64,10.64,0,0,1,4.81,2.19c2.17,1.56,3.29,3.36,3.36,5.36C38.87,60.09,37.14,61.48,33.66,62.8Z" style="fill:#ec1c24"/><path d="M78.8,63.79A49.52,49.52,0,0,1,78,53.11c0-2.09,0-3.91.16-5.49a35,35,0,0,1,.43-3.91,4.43,4.43,0,0,0,.65-2.44q0-3.33-4.48-5.86a13.64,13.64,0,0,0-6.52-2.1c-4.91,0-9.1,2.24-12.63,6.72a25.43,25.43,0,0,0-5.28,16.19q0,10.06,3.59,15.14c2.39,3.37,5.95,5,10.73,5a9.38,9.38,0,0,0,3.54-.88A32.12,32.12,0,0,0,73,72.92c2,2.33,3.42,3.49,4.34,3.49a3.66,3.66,0,0,0,2.77-1.35,5,5,0,0,0,1.21-3.42,25.74,25.74,0,0,0-1.16-3.81C79.3,65.37,78.85,64,78.8,63.79ZM67.71,66.31a7.69,7.69,0,0,1-3.47.81A4.55,4.55,0,0,1,60,64.46q-1.41-2.64-1.41-7.91a16.1,16.1,0,0,1,3-9.67c2-2.78,4.37-4.18,7-4.18a2.45,2.45,0,0,1,.79.17,7.28,7.28,0,0,1,1,.58c-.16,1.34-.28,2.54-.36,3.63S70,49.13,70,50q0,4.63.82,14A10.23,10.23,0,0,1,67.71,66.31Z" style="fill:#ec1c24"/><path d="M97.59,48.75q-4.31-2.58-4.31-4.11c0-1.7,2.39-2.57,7.17-2.57a11,11,0,0,1,2.44.26q.6,3.2,3.55,3.19c1.93,0,2.88-2.32,2.88-7,0-2.44-.65-4.11-2-5a7.69,7.69,0,0,0-4.4-1q-7.58,0-11.3,1.61c-4.22,1.82-6.33,5.36-6.33,10.59a12.3,12.3,0,0,0,4.19,9.41,56.11,56.11,0,0,0,7.87,5.13c2.79,1.62,4.19,3.08,4.19,4.42q0,3.2-6.07,3.2a11.18,11.18,0,0,1-4-1.14,10.68,10.68,0,0,0-4-1.14c-2.36,0-3.55,1.31-3.55,3.92,0,2.87,1.49,5,4.46,6.5a16.14,16.14,0,0,0,7.22,1.61,15.6,15.6,0,0,0,9.43-2.78q4.75-3.48,4.76-10.23a12.53,12.53,0,0,0-4.32-9.28A50.69,50.69,0,0,0,97.59,48.75Z" style="fill:#ec1c24"/><path d="M144.15,62.57c-.07-.9-.27-3.48-.59-7.69-.12-3.24-.23-6.46-.32-9.68-.24-3.89-.91-6.77-2-8.66q-2.22-3.76-7.29-3.76a10.47,10.47,0,0,0-5.28,1.38,15.69,15.69,0,0,0-4.64,4.2c0-2.5.07-5,.17-7.59s.19-5.31.19-7.91a33.47,33.47,0,0,0-.58-7.18c-.67-2.76-2-4.14-4-4.14A3.76,3.76,0,0,0,116.87,13a5.5,5.5,0,0,0-1.22,3.68,34.8,34.8,0,0,0,.27,3.58,34.46,34.46,0,0,1,.27,3.57c0,1.06-.06,3.11-.16,6.2L116,31.27q-.21,18.34-.06,26.21c-.09,6.49-.21,10-.34,10.59a9.23,9.23,0,0,0-.33,2.06,5.31,5.31,0,0,0,1.29,3.63,3.89,3.89,0,0,0,3,1.47c1.69,0,2.92-1.07,3.7-3.23.68-1.92,1-7.64,1-17.12A50.05,50.05,0,0,1,128,47.24c1.77-2.65,3.75-4,5.93-4,.85,0,1.37.73,1.54,2.16,0,.31.06,1.44.06,3.37,0,.66,0,1.64-.07,2.95s-.08,2.33-.08,3c0,2.38.18,5.42.55,9.1a78.18,78.18,0,0,0,1.34,9c.59,2.61,1.89,3.93,3.88,3.93a3.86,3.86,0,0,0,3-1.43,5.31,5.31,0,0,0,1.27-3.63,8.41,8.41,0,0,0-.16-1.47C144.77,68,144.44,65.48,144.15,62.57Z" style="fill:#ec1c24"/><path d="M176.94,37.85a5,5,0,0,0-1.16-3.63,3.89,3.89,0,0,0-3-1.44q-3.6,0-4,4.64c-.35,3.89-.5,8.51-.5,13.85q0,2,.06,6.56c0,2.56,0,4.85,0,6.84a23.61,23.61,0,0,1-7.23,1.27,4.09,4.09,0,0,1-1.35-.24,7.92,7.92,0,0,1-1.44-.66,54.29,54.29,0,0,1-.84-6.77q-.27-4.1-.27-9.57a53.08,53.08,0,0,1,.42-5.56c.27-2.43.42-4.23.42-5.36a5.29,5.29,0,0,0-1.24-3.59,3.79,3.79,0,0,0-3-1.41c-2.3,0-3.64,1.46-4,4.38a91.08,91.08,0,0,0-.83,11.54,148.81,148.81,0,0,0,1.16,17.38A11.44,11.44,0,0,0,154,73.9,10.87,10.87,0,0,0,161,76.24a17.82,17.82,0,0,0,7.88-1.84q1.11,2.92,3.56,2.92a3.62,3.62,0,0,0,2.92-1.42,5.43,5.43,0,0,0,1.19-3.62c0-.54,0-1.36-.07-2.44s-.08-1.9-.08-2.45c0-1.74,0-4.37,0-7.89s0-6.15,0-7.89Q176.39,52.75,176.94,37.85Z" style="fill:#ec1c24"/><path d="M208.21,56.25c0-.5,0-1.34,0-2.55V50.93q0-8.28-1.42-12.43-2.15-6.18-7.76-6.18-4.8,0-9.14,5.75l0-.43c-.18-4.1-1.58-6.15-4.18-6.15a3.75,3.75,0,0,0-3,1.45,5.65,5.65,0,0,0-1.2,3.7c0,.77,0,2,.1,3.53s.1,2.78.1,3.57q0,3.82-.4,10.66T180.92,65c0,.76.07,1.87.17,3.37s.2,2.64.2,3.38a5.94,5.94,0,0,0,1.16,3.76,3.68,3.68,0,0,0,5.94,0,5.93,5.93,0,0,0,1.17-3.79c0-.76.07-1.89.18-3.4s.18-2.64.18-3.41c0-1.13.05-2.31.16-3.53.13-1.47.22-2.64.25-3.53a38,38,0,0,1,3.83-11c1.63-2.87,3.31-4.32,5-4.32.8,0,1.18,1.08,1.18,3.26,0,.46,0,1.07,0,1.82s0,1.21,0,1.39c0,.68,0,1.85-.09,3.49s-.09,2.82-.09,3.48q0,3.81.41,8.13c.25,2.73.5,5.44.77,8.13.27,3.15,1.64,4.74,4.09,4.74a3.66,3.66,0,0,0,2.94-1.45A5.5,5.5,0,0,0,209.48,72a61.53,61.53,0,0,0-.64-7.84A61.23,61.23,0,0,1,208.21,56.25Z" style="fill:#ec1c24"/><path d="M244.24,17a6.22,6.22,0,0,0-1.06-3.68,3.34,3.34,0,0,0-2.82-1.5c-2.24,0-3.52,1.55-3.86,4.63q-.52,5.1-.9,18.47a8.12,8.12,0,0,0-3-1.88,11.76,11.76,0,0,0-4-.63q-7.31,0-11.82,6.49t-4.53,17q0,8.83,4.49,14.57a13.53,13.53,0,0,0,11.07,5.59,19.65,19.65,0,0,0,4.5-.5,10.26,10.26,0,0,0,4.19-2.09c.7,1.73,1.79,2.59,3.26,2.59a3.54,3.54,0,0,0,2.77-1.41,5.27,5.27,0,0,0,1.19-3.57,8.28,8.28,0,0,0-.08-1.16q-.68-4.75-.68-18.74,0-5.73.66-17.08T244.24,17ZM235,61.59c-.32.45-.65.85-1,1.23a16.65,16.65,0,0,1-2.75,2.5,6.82,6.82,0,0,1-3.49.71,7,7,0,0,1-5.55-3,11.33,11.33,0,0,1-2.38-7.25q0-6.7,2.2-10.06a7.43,7.43,0,0,1,6.62-3.35,6,6,0,0,1,3.76,1.2A8.75,8.75,0,0,1,235,47.23C234.94,55.56,234.94,60.33,235,61.59Z" style="fill:#ec1c24"/><path d="M278.55,62.57c-.07-.9-.27-3.48-.58-7.69-.12-3.24-.23-6.46-.32-9.68-.25-3.89-.92-6.77-2-8.66q-2.22-3.76-7.28-3.76a10.48,10.48,0,0,0-5.29,1.38,15.54,15.54,0,0,0-4.63,4.2c0-2.5.06-5,.17-7.59s.17-5.31.17-7.91a33.76,33.76,0,0,0-.56-7.18q-1-4.14-4-4.14a3.78,3.78,0,0,0-3,1.42,5.5,5.5,0,0,0-1.22,3.68,34.8,34.8,0,0,0,.27,3.58,32.39,32.39,0,0,1,.28,3.57c0,1.06-.06,3.11-.18,6.2l0,1.28q-.21,18.34-.06,26.21c-.1,6.49-.22,10-.35,10.59a8.8,8.8,0,0,0-.34,2.06,5.28,5.28,0,0,0,1.32,3.63,3.83,3.83,0,0,0,3,1.47c1.68,0,2.91-1.07,3.68-3.23.7-1.92,1-7.64,1-17.12a51,51,0,0,1,3.73-7.64c1.77-2.65,3.74-4,5.94-4,.85,0,1.36.73,1.54,2.16.05.31.06,1.44.06,3.37,0,.66,0,1.64-.08,2.95s-.07,2.33-.07,3c0,2.38.18,5.42.54,9.1a82.94,82.94,0,0,0,1.34,9c.59,2.61,1.9,3.93,3.89,3.93a3.86,3.86,0,0,0,2.95-1.43,5.34,5.34,0,0,0,1.25-3.63,9.27,9.27,0,0,0-.14-1.47Q279,66.93,278.55,62.57Z" style="fill:#ec1c24"/><path d="M311.79,63.79A51,51,0,0,1,311,53.11c0-2.09,0-3.91.15-5.49a37.17,37.17,0,0,1,.44-3.91,4.43,4.43,0,0,0,.65-2.44q0-3.33-4.47-5.86a13.74,13.74,0,0,0-6.53-2.1q-7.35,0-12.63,6.72a25.49,25.49,0,0,0-5.28,16.19q0,10.06,3.58,15.14c2.4,3.37,6,5,10.75,5a9.3,9.3,0,0,0,3.52-.88A31.69,31.69,0,0,0,306,72.92c2,2.33,3.43,3.49,4.33,3.49a3.65,3.65,0,0,0,2.78-1.35,5,5,0,0,0,1.21-3.42,24.39,24.39,0,0,0-1.16-3.81C312.31,65.37,311.86,64,311.79,63.79Zm-11.08,2.52a7.72,7.72,0,0,1-3.47.81A4.54,4.54,0,0,1,293,64.46c-1-1.76-1.43-4.4-1.43-7.91a16.05,16.05,0,0,1,3-9.67c2-2.78,4.35-4.18,7-4.18a2.56,2.56,0,0,1,.79.17,7.82,7.82,0,0,1,1,.58c-.17,1.34-.29,2.54-.36,3.63S303,49.13,303,50q0,4.63.82,14A10.23,10.23,0,0,1,300.71,66.31Z" style="fill:#ec1c24"/><path d="M337.55,32.94q-6.42,0-11.68,5.2c-.42-3-1.73-4.46-3.93-4.46a3.22,3.22,0,0,0-2.85,1.47,6.46,6.46,0,0,0-1,3.66c0,.81,0,2-.07,3.62s0,2.81,0,3.63V71.7a6.32,6.32,0,0,0,.95,3.6,3.2,3.2,0,0,0,2.86,1.57,3.58,3.58,0,0,0,2.94-1.47,5.73,5.73,0,0,0,1.16-3.69l0-19.69q2.89-7.65,9.6-9l.16,3.94c0,3.38,1.24,5.08,3.73,5.08s3.92-2,4.11-6c0-.41,0-1.27,0-2.62C343.5,36.43,341.52,32.94,337.55,32.94Z" style="fill:#ec1c24"/><path d="M376.22,67.83c-.86-2.46-1.3-3.81-1.37-4a51,51,0,0,1-.8-10.69c0-2.08.06-3.9.16-5.48a34.67,34.67,0,0,1,.44-3.91,4.52,4.52,0,0,0,.66-2.44c0-2.22-1.51-4.17-4.49-5.86a13.67,13.67,0,0,0-6.52-2.1q-7.35,0-12.63,6.72a25.43,25.43,0,0,0-5.27,16.19q0,10.06,3.57,15.14t10.74,5a9.15,9.15,0,0,0,3.53-.89,32,32,0,0,0,4.81-2.6c2,2.32,3.44,3.49,4.35,3.49a3.68,3.68,0,0,0,2.77-1.35,5,5,0,0,0,1.2-3.42A24.63,24.63,0,0,0,376.22,67.83Zm-12.45-1.52a7.76,7.76,0,0,1-3.47.81A4.56,4.56,0,0,1,356,64.46q-1.43-2.64-1.42-7.91a16,16,0,0,1,3-9.67q3-4.18,7-4.18a2.63,2.63,0,0,1,.8.16,8.37,8.37,0,0,1,1,.58c-.17,1.34-.28,2.54-.36,3.63S366,49.13,366,50q0,4.63.83,14A10.36,10.36,0,0,1,363.77,66.31Z" style="fill:#ec1c24"/><path d="M262.49,91.21a11.72,11.72,0,0,0-5.75,1.37,2.35,2.35,0,0,1-1.17.42c0-.61-.1-1.27-.1-1.79,0-3.3,1.61-4.76,4.72-4.76,4.8,0,9.52.14,14.09.14a35,35,0,0,0,7.63-1,2.65,2.65,0,0,1,.09.7c-.09,3.58-2,5.14-4.76,5.14-1.18,0-3.57-.19-4.75-.19-.85,0-1.27.14-1.47.85-1.08,4.62-3.39,14.19-4.94,21.54a31.78,31.78,0,0,0-.9,6.17,6.27,6.27,0,0,0,.62,2.63,10.81,10.81,0,0,1-5.09,1.33c-1.94,0-3-.75-3-2.32a19.82,19.82,0,0,1,.76-4.8c.42-1.65,5.18-21.58,5.65-24.08.1-.47.19-.86.24-1.27C263.72,91.26,263.15,91.21,262.49,91.21Z" style="fill:#ec1c24"/><path d="M277.51,103.2a28.61,28.61,0,0,0,.66-4.47c0-.78.16-1.71-.85-2.11a.55.55,0,0,1-.37-.37c-.11-.37-.11-.37.12-.52a10.23,10.23,0,0,1,4.69-1.41,2.53,2.53,0,0,1,2,.74,2.58,2.58,0,0,1,.37,2.11c-1.44,6.14-3,12.24-4.22,18.41a22.43,22.43,0,0,0-.55,3.81,4.82,4.82,0,0,0,.85,2.7c0,.81-3.47,1.44-4.48,1.44-1.61,0-2.09-.88-2.09-2.37a16.84,16.84,0,0,1,.55-3.55C275.21,113.33,276.58,107.52,277.51,103.2Z" style="fill:#ec1c24"/><path d="M287,117.18c.58,2.24,2.74,3.54,5.32,3.54,3.15,0,5.18-1.59,5.18-4.59a5.32,5.32,0,0,0-2.33-4.17c-2.88-2.41-6.68-4.1-6.68-8.36,0-5.84,5.2-9.68,11-9.68,3,0,5.69.66,5.69,2.88a4.17,4.17,0,0,1-2.45,3.18c-1.17-1.88-2.46-3-4.94-3s-4.37,1.25-4.37,3.77c0,2.25,1.26,3.11,6.25,7a7.84,7.84,0,0,1,3.06,6.13c0,6-6.31,10-12,10-3.14,0-7.35-1.28-7.35-3.95,0-1.48,1.43-3.37,3.58-4A3.19,3.19,0,0,0,287,117.18Z" style="fill:#ec1c24"/><path d="M308.29,117.18c.6,2.24,2.75,3.54,5.33,3.54,3.15,0,5.18-1.59,5.18-4.59a5.32,5.32,0,0,0-2.33-4.17c-2.89-2.41-6.69-4.1-6.69-8.36,0-5.84,5.21-9.68,11-9.68,3,0,5.69.66,5.69,2.88A4.17,4.17,0,0,1,324,100c-1.18-1.88-2.46-3-5-3s-4.36,1.25-4.36,3.77c0,2.25,1.26,3.11,6.25,7A7.87,7.87,0,0,1,324,113.8c0,6-6.31,10-12.05,10-3.14,0-7.35-1.28-7.35-3.95,0-1.48,1.44-3.37,3.58-4A3.19,3.19,0,0,0,308.29,117.18Z" style="fill:#ec1c24"/><path d="M343,120v-1.3c0-.07,0-.11,0-.07-2.59,3-5.18,5.21-9,5.21-4.51,0-6-3.33-6-6.73a13.85,13.85,0,0,1,.11-1.73c.56-4.1,3.41-14.49,3.56-17.45a3.81,3.81,0,0,0-.89-2.44c1.11-1,3.55-1.25,4.66-1.25,1.3,0,2,.51,2,1.66,0,3-2.29,10.76-3.36,15.78a25.35,25.35,0,0,0-.74,4.92c0,2.15.89,3.4,2.66,3.4,1.55,0,3.44-1,5.24-3.18a18.68,18.68,0,0,0,2.38-5.87A146.2,146.2,0,0,0,347,96.66a2,2,0,0,0-.07-.75c-.22-1.51,1.63-1.7,3.14-1.7,2.44,0,3,.3,3,1.37a15.27,15.27,0,0,1-.78,2.77c-1.93,6.44-4,14.23-4,18.74a11.55,11.55,0,0,0,.1,1.66c.29,1.78.59,3,1.48,3.75a7,7,0,0,1-4.58,1.21C343.2,123.49,343,121.68,343,120Z" style="fill:#ec1c24"/><path d="M367.92,94.51c1.47,0,2.85-.15,3.88-.15,1.49,0,2.08.15,2.56.67-.26,1.77-1.29,3.84-2.93,3.84-.43,0-1.14-.92-3.1-.92H367c-1,0-2-.08-2.77-.08h-1.63A1.6,1.6,0,0,1,363,99a1.76,1.76,0,0,1-.07.6c-.44,2.1-.95,4.51-1.59,7.09h2.18a42.9,42.9,0,0,0,6.55-.55,4.07,4.07,0,0,1-.11.88c-.82,3-3,3.14-6,3.14h-3.31a26.69,26.69,0,0,0-1.35,6.73c0,3,2.56,2.74,4.11,2.74,3.74,0,6.66-1.59,7.59-1.59,0,4.62-3.71,5.21-9.22,5.21-1.73,0-3.43,0-5.13,0-2.74,0-3.14-1.34-3.14-3.33a22.92,22.92,0,0,1,.82-5.07c1.84-7,3.36-12.34,3.36-15.45,0-.55,0-1.22-.19-1.15a4.91,4.91,0,0,1-1.18.12c-.12,0-.15-.22-.12-.63a2.56,2.56,0,0,1,.23-1c.67-1.33,1-1.6,2.11-1.71C361.64,94.66,364.78,94.51,367.92,94.51Z" style="fill:#ec1c24"/></svg>